# xmcd CD database file
#
# Track frame offsets:
#	183
#	13413
#	21480
#	39560
#	52008
#	73143
#	82525
#	91375
#	110678
#	125055
#	135940
#	148225
#	165340
#
# Disc length: 2426 seconds
#
# Revision: 0
# Processed by: cddbd v1.5.2PL0 Copyright (c) Steve Scherf et al.
# Submitted via: CDex 1.70beta2
#
DISCID=b509780d
DTITLE=Golden Gate Quartet - Spirituals
DYEAR=1990
DGENRE=Jazz/Gospel/Spiritual
TTITLE0=The King Of The Kings
TTITLE1=Old time religion
TTITLE2=Tale my hand, precious Lord
TTITLE3=My lord, what a morning
TTITLE4=Precious memories
TTITLE5=For the rest of my life
TTITLE6=Casey Jones
TTITLE7=Somebody's knocking at your door
TTITLE8=Rocks, Don't Fall on me
TTITLE9=Roll, Jordan, Roll
TTITLE10=Skip to my Lou
TTITLE11=When tey ring the golden bells
TTITLE12=Peace in the valley
EXTD=YEAR: 1990
EXTT0=
EXTT1=
EXTT2=
EXTT3=
EXTT4=
EXTT5=
EXTT6=
EXTT7=
EXTT8=
EXTT9=
EXTT10=
EXTT11=
EXTT12=
PLAYORDER=
